<?xml version="1.0" encoding="utf-8" ?>
<svg baseProfile="full" height="200mm" version="1.1" viewBox="0,0,200,200" width="200mm" xmlns="http://www.w3.org/2000/svg" xmlns:ev="http://www.w3.org/2001/xml-events" xmlns:xlink="http://www.w3.org/1999/xlink"><defs /><rect fill="#1a1a1a" height="200" width="200" x="0" y="0" /><text alignment-baseline="middle" fill="#e1ed5e" style="dominant-baseline: central; font-size:9.0px; font-family:Arial;" text-anchor="middle" x="100.0" y="100.0">2024</text><line stroke="#e1ed5e" stroke-width="0.3" x1="100.0" x2="100.0" y1="15.0" y2="10.0" /><path d="M 100.0 14.0 a86.0,86.0 0 0,1 42.35913384403234,11.155469271406648" fill="none" id="id61" stroke="none" /><text fill="#e1ed5e" style="font-size:6.75px; font-family:Arial;" text-anchor="middle"><textPath startOffset="22.145653131862478" xlink:href="#id61">January</textPath></text><path d="M 109.71004243097381 81.37971332152246 l 18.8455771777019 -36.1388791207363 a61.75750683326826,61.75750683326826 0 0,0 0.9358061611182826,0.4982640713038397 l -19.46317215460674 35.81004458170989" fill="red" stroke="none" /><line stroke="#e1ed5e" stroke-width="0.3" x1="143.13028292997686" x2="145.6673583964461" y1="26.7553504044142" y2="22.446841604673864" /><path d="M 143.63769802327073 25.89364864446614 a86.0,86.0 0 0,1 29.32050498858742,28.57503671076993" fill="none" id="id62" stroke="none" /><text fill="#e1ed5e" style="font-size:6.75px; font-family:Arial;" text-anchor="middle"><textPath startOffset="20.669276256404974" xlink:href="#id62">February</textPath></text><path d="M 114.39649973595853 84.71141617570332 l 27.36234379725815 -29.057860899946927 a60.91311987504881,60.91311987504881 0 0,0 0.7551124321552242,0.7233806286704403 l -27.857128715278687 28.583868140970907" fill="red" stroke="none" /><path d="M 116.1254893667686 86.54754324733833 l 45.552461079221956 -38.001483161706716 a80.32233502538071,80.32233502538071 0 0,0 0.874186912201493,1.0663658920821515 l -46.19809481066208 37.213914987926074" fill="red" stroke="none" /><path d="M 117.21940702142032 87.97951657250589 l 50.56797239244397 -35.3003720365752 a82.67038266302225,82.67038266302225 0 0,0 0.8023367832442075,1.1706333448785746 l -51.1664989125035 34.427103956626574" fill="red" stroke="none" /><line stroke="#e1ed5e" stroke-width="0.3" x1="172.87174338648825" x2="177.1583165268699" y1="56.24261187166439" y2="53.66864786411523" /><path d="M 173.72905801456457 55.72781907015455 a86.0,86.0 0 0,1 12.242430191666344,42.057860355516425" fill="none" id="id63" stroke="none" /><text fill="#e1ed5e" style="font-size:6.75px; font-family:Arial;" text-anchor="middle"><textPath startOffset="22.145653131862474" xlink:href="#id63">March</textPath></text><path d="M 118.18653347947321 89.5 l 43.29030538105415 -24.993669465052726 a70.98733893010544,70.98733893010544 0 0,0 0.6002372809479,1.0605617618095189 l -43.71297602702342 24.24685093314409" fill="red" stroke="none" /><path d="M 118.70294669586156 90.45014215332178 l 33.067737237482895 -16.884622250415003 a58.129041390082,58.129041390082 0 0,0 0.4461544731510452,0.8926078133352507 l -33.35271162384568 16.314482580916003" fill="red" stroke="none" /><path d="M 119.16976305983485 91.42560881287824 l 47.19590425646005 -21.11012766624773 a72.70194260054666,72.70194260054666 0 0,0 0.4997951058602843,1.1436290115209327 l -47.5513332443373 20.29683658495095" fill="red" stroke="none" /><path d="M 120.7213421655516 96.59031103205396 l 42.23743397351295 -6.950153687112901 a63.8054373291683,63.8054373291683 0 0,0 0.1685633550708424,1.082297658746787 l -42.35051882072206 6.224067846434672" fill="red" stroke="none" /><path d="M 120.77682067341334 96.94652285012252 l 24.8098847020235 -3.6461986758957763 a46.0763861772745,46.0763861772745 0 0,0 0.10829153881752883,0.7835436295139374 l -24.86882075739624 3.2197667381817534" fill="red" stroke="none" /><line stroke="#e1ed5e" stroke-width="0.3" x1="184.99686870605535" x2="189.99668451229388" y1="99.2704041080226" y2="99.22748670261217" /><path d="M 185.99683186730306 99.26182062694052 a86.0,86.0 0 0,1 -10.086455211305974,41.156179273409016" fill="none" id="id64" stroke="none" /><text fill="#e1ed5e" style="font-size:6.75px; font-family:Arial;" text-anchor="middle"><textPath startOffset="21.40746469413373" xlink:href="#id64">April</textPath></text><path d="M 120.99922638620191 99.81974689727618 l 37.36443762513244 -0.32072875874544177 a58.36581413510348,58.36581413510348 0 0,0 0.0,1.0019637229385328 l -37.36443762513244 -0.3207287587454372" fill="red" stroke="none" /><path d="M 120.98066250479742 100.90099992219065 l 56.08804500440549 2.4086619844935453 a77.13974033580632,77.13974033580632 0 0,0 -0.0681709985888226,1.3224991605945249 l -56.03843241636009 -3.3711329384648008" fill="red" stroke="none" /><path d="M 120.86939407059847 102.33845913500097 l 42.89308320956877 4.806259440042138 a64.16151893791488,64.16151893791488 0 0,0 -0.13204414242417914,1.093514920289438 l -42.80425698088493 -5.541868037254984" fill="red" stroke="none" /><path d="M 120.65975698304385 103.76489593502545 l 37.52335420728414 6.8380051052619075 a59.14132174931667,59.14132174931667 0 0,0 -0.19058631057666833,0.9972281110463086 l -37.40044160442532 -7.481135781341531" fill="red" stroke="none" /><path d="M 120.51834098615036 104.47187691870673 l 59.15086787394541 12.891656345194395 a81.53940843420538,81.53940843420538 0 0,0 -0.3098075784791899,1.3650693541138075 l -58.92084943390855 -13.90516003324722" fill="red" stroke="none" /><path d="M 120.26092885502905 105.52220625578681 l 33.34687024350317 9.088837771812017 a55.563285825849285,55.563285825849285 0 0,0 -0.2587172320639369,0.9180961858800945 l -33.18593451936466 -9.659941881595119" fill="red" stroke="none" /><path d="M 119.94978838288452 106.5578916946017 l 53.423328763744934 17.56130928678465 a77.23567942210074,77.23567942210074 0 0,0 -0.42484985466742536,1.2559931044522832 l -53.11399348750514 -18.475804065711092" fill="red" stroke="none" /><path d="M 119.71291397450082 107.23885506374661 l 17.052324862713945 6.2618498888992775 a39.16569699336197,39.16569699336197 0 0,0 -0.23717499545603146,0.6291348535316788 l -16.942319183443473 -6.553653022625115" fill="red" stroke="none" /><line stroke="#e1ed5e" stroke-width="0.3" x1="174.33088141563837" x2="178.70328620479359" y1="141.23008692659167" y2="143.65538615756765" /><path d="M 175.20536237346943 141.71514677278685 a86.0,86.0 0 0,1 -30.301960400862466,31.631185727798858" fill="none" id="id65" stroke="none" /><text fill="#e1ed5e" style="font-size:6.75px; font-family:Arial;" text-anchor="middle"><textPath startOffset="22.145653131862474" xlink:href="#id65">May</textPath></text><path d="M 116.79662413953412 112.60449989151573 l 34.9639997219275 26.237637220488228 a64.71378367825068,64.71378367825068 0 0,0 -0.67440398075745,0.8828164594701273 l -34.50844376381574 -26.833974593199233" fill="red" stroke="none" /><line stroke="#e1ed5e" stroke-width="0.3" x1="143.1302829299769" x2="145.66735839644613" y1="173.24464959558577" y2="177.55315839532614" /><path d="M 143.63769802327073 174.10635135553383 a86.0,86.0 0 0,1 -40.68552437913181,11.842963189579606" fill="none" id="id66" stroke="none" /><text fill="#e1ed5e" style="font-size:6.75px; font-family:Arial;" text-anchor="middle"><textPath startOffset="21.407464694133747" xlink:href="#id66">June</textPath></text><path d="M 108.4095320186766 119.2426549942271 l 15.172128940138334 34.71680018277103 a58.88732916829364,58.88732916829364 0 0,0 -0.9297606128142551,0.3968595186268934 l -14.573933252153648 -34.97213435105733" fill="red" stroke="none" /><path d="M 101.44090949804482 120.95050786540614 l 2.075618597905948 30.17903887788746 a51.250331901600944,51.250331901600944 0 0,0 -0.8782248280893713,0.052831824833226924 l -1.5572494176841116 -30.210222680545378" fill="red" stroke="none" /><line stroke="#e1ed5e" stroke-width="0.3" x1="101.45913802915013" x2="101.54496967792366" y1="184.9874750549273" y2="189.98673829345242" /><path d="M 101.47630435890484 185.9873277026323 a86.0,86.0 0 0,1 -42.54439059252881,-10.42667462771756" fill="none" id="id67" stroke="none" /><text fill="#e1ed5e" style="font-size:6.75px; font-family:Arial;" text-anchor="middle"><textPath startOffset="22.145653131862474" xlink:href="#id67">July</textPath></text><path d="M 99.27912038922189 120.98762331915562 l -0.8728667040384096 25.41256170696431 a46.427547832877785,46.427547832877785 0 0,0 -0.7962860346607111,-0.03419594853626701 l 1.3089784992999596 -25.393833190002216" fill="red" stroke="none" /><path d="M 93.95794788825049 120.11202640906438 l -7.925681321441348 26.38201543092967 a48.54681764935572,48.54681764935572 0 0,0 -0.79607387627754,-0.2466257218076982 l 8.37739583059052 -26.242073121315325" fill="red" stroke="none" /><line stroke="#e1ed5e" stroke-width="0.3" x1="58.13341422392154" x2="55.67067388415222" y1="173.97424548756322" y2="178.32567169271397" /><path d="M 57.64086615596768 174.84453072859336 a86.0,86.0 0 0,1 -31.369924170532247,-30.572349798747897" fill="none" id="id68" stroke="none" /><text fill="#e1ed5e" style="font-size:6.75px; font-family:Arial;" text-anchor="middle"><textPath startOffset="22.145653131862474" xlink:href="#id68">August</textPath></text><path d="M 89.03521579738668 117.91015095944536 l -29.053895196772352 47.45735431893642 a76.64467005076142,76.64467005076142 0 0,0 -1.1162233065999831,-0.6966058988371939 l 29.86428263216205 -46.951612623257674" fill="red" stroke="none" /><line stroke="#e1ed5e" stroke-width="0.3" x1="26.387840678322732" x2="22.057713659400548" y1="142.50000000000003" y2="145.00000000000006" /><path d="M 25.521815274538298 143.00000000000003 a86.0,86.0 0 0,1 -11.493303480769221,-40.785679425670985" fill="none" id="id69" stroke="none" /><text fill="#e1ed5e" style="font-size:6.75px; font-family:Arial;" text-anchor="middle"><textPath startOffset="21.40746469413373" xlink:href="#id69">September</textPath></text><path d="M 81.4637452351635 109.86951160357371 l -36.30366389812487 19.329656213750475 a62.12896329558766,62.12896329558766 0 0,0 -0.49316175544409563,-0.9457026918789068 l 36.63013372254391 -18.703607278767063" fill="red" stroke="none" /><path d="M 79.407916724674 104.11899336999214 l -40.99099013491998 8.19934604661682 a62.80299687622023,62.80299687622023 0 0,0 -0.20238626925742573,-1.0589704810519212 l 41.12570269645956 -7.494473000531585" fill="red" stroke="none" /><path d="M 79.13060592940153 102.33845913500099 l -50.41596601750503 5.6492141499033375 a71.73148184303007,71.73148184303007 0 0,0 -0.12661497217456835,-1.2248849999454572 l 50.50551338216126 -4.78292462767495" fill="red" stroke="none" /><path d="M 79.0935383218832 101.97986365728391 l -41.25679188344106 3.90706108588666 a62.44138032018743,62.44138032018743 0 0,0 -0.09189699330712263,-1.0679823611344224 l 41.317782499445926 -3.1982576773765756" fill="red" stroke="none" /><line stroke="#e1ed5e" stroke-width="0.3" x1="15.003131293944662" x2="10.003315487706104" y1="100.72959589197737" y2="100.7725132973878" /><path d="M 14.003168132696942 100.73817937305945 a86.0,86.0 0 0,1 10.791469493833604,-42.45332614584628" fill="none" id="id70" stroke="none" /><text fill="#e1ed5e" style="font-size:6.75px; font-family:Arial;" text-anchor="middle"><textPath startOffset="22.145653131862435" xlink:href="#id70">October</textPath></text><path d="M 79.00077361379809 100.18025310272382 l -41.76394364524826 0.3584932266354986 a62.76548223350254,62.76548223350254 0 0,0 0.0,-1.0774926587186169 l 41.76394364524826 0.3584932266354833" fill="red" stroke="none" /><path d="M 79.00696218219943 99.45929381324524 l -41.793441356523324 -1.0764507978013085 a62.80730183522062,62.80730183522062 0 0,0 0.03701238186162588,-1.0775751138504417 l 41.76880428766485 1.7937321762158887" fill="red" stroke="none" /><path d="M 79.0935383218832 98.0201363427161 l -41.145973758770836 -3.896566494263204 a62.33006638032018,62.33006638032018 0 0,0 0.11002030653226452,-1.0643466633232703 l 41.073021059756904 4.602317679869387" fill="red" stroke="none" /><path d="M 79.22317932658666 96.9465228501225 l -40.975403200205236 -6.0219732049258035 a62.41555056618509,62.41555056618509 0 0,0 0.1648915053704981,-1.0587217496633479 l 40.86599020269647 6.724483136520601" fill="red" stroke="none" /><path d="M 79.407916724674 95.88100663000787 l -41.1809502939905 -8.23734339857544 a62.9967200312378,62.9967200312378 0 0,0 0.22121534979333057,-1.0585955296191785 l 41.0334772333728 8.943055379480029" fill="red" stroke="none" /><path d="M 79.56144815229197 95.17655741523228 l -58.53957188040438 -13.815179568785206 a81.14765716516987,81.14765716516987 0 0,0 0.33159434184526976,-1.3530180715753133 l 58.29379001204281 14.818053464968637" fill="red" stroke="none" /><path d="M 79.73907114497095 94.47779374421319 l -53.888651489923674 -14.68759159576769 a76.85438305349473,76.85438305349473 0 0,0 0.3578541650308763,-1.2698981872802486 l 53.62857883281822 15.610497706950953" fill="red" stroke="none" /><path d="M 80.16572619554312 93.10060997987247 l -35.047649730964075 -12.191391888943414 a58.10751659508005,58.10751659508005 0 0,0 0.3358056349117934,-0.9393081264545323 l 34.83320392600834 12.791234971778868" fill="red" stroke="none" /><path d="M 80.28708602549916 92.7611449362534 l -39.516849115635196 -14.511134360655563 a63.09696407653261,63.09696407653261 0 0,0 0.38209513214275004,-1.0135527336411905 l 39.26192329967801 15.187355374490899" fill="red" stroke="none" /><path d="M 80.5471966667186 92.08871423366112 l -58.3584099998442 -23.73385729901662 a84.0,84.0 0 0,0 0.5546966218540859,-1.3310699622349447 l 57.94238753345363 24.732159770692828" fill="red" stroke="none" /><path d="M 80.9802524753101 91.09779779509293 l -11.311588229150795 -5.29439444681529 a33.48930105427567,33.48930105427567 0 0,0 0.24817285145097698,-0.5185858103537592 l 11.219036119739913 5.487792759234137" fill="red" stroke="none" /><line stroke="#e1ed5e" stroke-width="0.3" x1="26.387840678322718" x2="22.05771365940052" y1="57.49999999999999" y2="54.99999999999999" /><path d="M 25.521815274538284 56.99999999999999 a86.0,86.0 0 0,1 29.574782752854787,-30.34633250058573" fill="none" id="id71" stroke="none" /><text fill="#e1ed5e" style="font-size:6.75px; font-family:Arial;" text-anchor="middle"><textPath startOffset="21.40746469413373" xlink:href="#id71">November</textPath></text><path d="M 82.37810715431573 88.57770195909679 l -34.87359520519213 -22.604643081181443 a62.5588442014838,62.5588442014838 0 0,0 0.5918530224857377,-0.8961409106503849 l 34.480417743785665 23.19996387017089" fill="red" stroke="none" /><path d="M 82.78059297857968 87.97951657250589 l -50.52258738760421 -35.268689778419976 a82.61503319016009,82.61503319016009 0 0,0 0.8217634794223647,-1.1559132460675172 l 49.909708809651875 36.13078025119701" fill="red" stroke="none" /><path d="M 83.2033758604659 87.39550010848427 l -30.66630043140301 -23.01256355144764 a59.34057985162046,59.34057985162046 0 0,0 0.618408026817905,-0.8095159582689815 l 30.2667404272308 23.535600422957508" fill="red" stroke="none" /><path d="M 83.8745106332314 86.54754324733833 l -25.970475270482407 -21.66549414259692 a54.820987895353376,54.820987895353376 0 0,0 0.6090492623760291,-0.717458499646375 l 25.594731444599265 22.108119424692852" fill="red" stroke="none" /><path d="M 84.34580500576568 86.00192230759919 l -45.973730084150695 -41.10999292933515 a82.6734576337368,82.6734576337368 0 0,0 0.9550843286331974,-1.049804983316358 l 45.261248054675626 41.89313548820916" fill="red" stroke="none" /><path d="M 85.08716467003674 85.21462403516908 l -29.446444419839093 -29.194766920013414 a62.465980085903944,62.465980085903944 0 0,0 0.7615140770948283,-0.755005448879049 l 28.940938422614288 29.695952379121135" fill="red" stroke="none" /><path d="M 85.60350026404147 84.71141617570332 l -28.669749469296644 -30.446280416907413 a62.82021671222179,62.82021671222179 0 0,0 0.7914456715075969,-0.7325502979496241 l 28.14287402647509 30.933948460989402" fill="red" stroke="none" /><path d="M 86.13680546590413 84.22622945171909 l -22.004641070323984 -25.037242201781297 a54.332682545880516,54.332682545880516 0 0,0 0.7058605103831962,-0.6097054971842355 l 21.571601080177942 25.411291831430244" fill="red" stroke="none" /><path d="M 86.96720088162412 83.53348406188908 l -38.173226375150776 -48.23062450408342 a82.50925419757908,82.50925419757908 0 0,0 1.1181577723901763,-0.869486246927426 l 37.33965865812536 48.87881180263165" fill="red" stroke="none" /><path d="M 87.54013794807813 83.09580414077388 l -36.653450110763934 -49.727444574168196 a82.77616165560329,82.77616165560329 0 0,0 1.1510576710376368,-0.8332769867948485 l 35.79441142935233 50.34932233233612" fill="red" stroke="none" /><path d="M 88.12776184653039 82.6780497279521 l -24.350720721043068 -35.52842926210715 a64.07234478719249,64.07234478719249 0 0,0 0.9125845788656567,-0.6140276320165595 l 23.73723985408042 35.941206568180824" fill="red" stroke="none" /><line stroke="#e1ed5e" stroke-width="0.3" x1="56.869717070023135" x2="54.33264160355391" y1="26.7553504044142" y2="22.446841604673864" /><path d="M 56.362301976729285 25.89364864446614 a86.0,86.0 0 0,1 42.16139366436587,-11.88097634709845" fill="none" id="id72" stroke="none" /><text fill="#e1ed5e" style="font-size:6.75px; font-family:Arial;" text-anchor="middle"><textPath startOffset="22.145653131862474" xlink:href="#id72">December</textPath></text><path d="M 89.97174638481275 81.54914285379989 l -20.582687074006216 -37.86982593981164 a64.10186450605232,64.10186450605232 0 0,0 0.9713300102266794,-0.5171785200652993 l 19.929568247992975 38.217574927599514" fill="red" stroke="none" /><path d="M 91.92203290615298 80.6158196554323 l -16.571266603579378 -39.765007290803084 a64.07972471690746,64.07972471690746 0 0,0 1.0190065808264708,-0.41442110530699994 l 15.886205561562466 40.043615652689375" fill="red" stroke="none" /><path d="M 92.592206182469 80.34994680014964 l -18.45165449110547 -48.94520572608569 a73.30771183131588,73.30771183131588 0 0,0 1.1813392833871619,-0.4338041481138523 l 17.608726056064178 49.254740723208265" fill="red" stroke="none" /><path d="M 92.93061703081487 80.22567764915836 l -14.050502166234482 -39.30175522211742 a62.73780749707145,62.73780749707145 0 0,0 1.017231491776404,-0.3538459170077844 l 13.373764902413074 39.53715957169379" fill="red" stroke="none" /><path d="M 94.30408787586887 79.78721728523814 l -11.14172455347173 -39.538049843317175 a62.077918781725884,62.077918781725884 0 0,0 1.0281835592167028,-0.28023600119370673 l 10.46135959332035 39.72348633865502" fill="red" stroke="none" /><path d="M 97.84075906011542 79.11130261209362 l -4.25554266221258 -41.16851493980836 a62.387875829754,62.387875829754 0 0,0 1.0662398035609593,-0.1009740179625676 l 3.5482032952666054 41.23550071327611" fill="red" stroke="none" /><path d="M 99.27912038922189 79.0123766808444 l -1.4786758013897099 -43.05003258064127 a64.07541975790707,64.07541975790707 0 0,0 1.0996156274322908,-0.028322197957495146 l 0.7394468598866751 43.06907249594882" fill="red" stroke="none" /></svg>