<?xml version="1.0" encoding="utf-8" ?>
<svg baseProfile="full" height="200mm" version="1.1" viewBox="0,0,200,200" width="200mm" xmlns="http://www.w3.org/2000/svg" xmlns:ev="http://www.w3.org/2001/xml-events" xmlns:xlink="http://www.w3.org/1999/xlink"><defs /><rect fill="#1a1a1a" height="200" width="200" x="0" y="0" /><text alignment-baseline="middle" fill="#e1ed5e" style="dominant-baseline: central; font-size:9.0px; font-family:Arial;" text-anchor="middle" x="100.0" y="100.0">2025</text><line stroke="#e1ed5e" stroke-width="0.3" x1="100.0" x2="100.0" y1="15.0" y2="10.0" /><path d="M 100.0 14.0 a86.0,86.0 0 0,1 42.46469731375804,11.215312516191453" fill="none" id="id73" stroke="none" /><text fill="#e1ed5e" style="font-size:6.75px; font-family:Arial;" text-anchor="middle"><textPath startOffset="22.20632615414155" xlink:href="#id73">January</textPath></text><path d="M 100.36148047927253 79.00311137660856 l 0.7745059038694915 -44.987807459020146 a65.994473875855,65.994473875855 0 0,0 1.1356497658601006,0.029330482958998625 l -1.5487823049244598 44.96781018391879" fill="red" stroke="none" /><path d="M 101.80526077348638 79.07773832637324 l 2.7111778582435795 -31.421484046522558 a52.53823306821265,52.53823306821265 0 0,0 0.9003423784917217,0.08549835748765834 l -3.251645363825545 31.370160144519723" fill="red" stroke="none" /><path d="M 102.88285421437855 79.19881850522331 l 2.068190923799364 -14.922993523997592 a36.06562807899359,36.06562807899359 0 0,0 0.6141993972081609,0.0905170253315238 l -2.3247593014361807 14.885182014505098" fill="red" stroke="none" /><path d="M 104.66035177308747 79.52364482259891 l 7.001408091367155 -30.762338510293564 a52.54902828747269,52.54902828747269 0 0,0 0.8802620678413904,0.20832959133129667 l -7.529893846171069 30.6372630068214" fill="red" stroke="none" /><path d="M 108.76106565485865 80.91482961587045 l 13.151919453236928 -28.65023885583751 a52.5247390441376,52.5247390441376 0 0,0 0.8184399552878356,0.3842685330893046 l -13.643137619824362 28.419605340108202" fill="red" stroke="none" /><path d="M 110.05341064243156 81.56283822128135 l 15.158713189543455 -27.799883778069958 a52.66417729291314,52.66417729291314 0 0,0 0.7921592845557516,0.440835784202616 l -15.634996563171242 27.53483259630716" fill="red" stroke="none" /><line stroke="#e1ed5e" stroke-width="0.3" x1="143.23703022742887" x2="145.7803849466894" y1="26.81831364943548" y2="22.513508569990506" /><path d="M 143.74570117128098 25.957352633546492 a86.0,86.0 0 0,1 28.547481713284135,27.462654790039103" fill="none" id="id74" stroke="none" /><text fill="#e1ed5e" style="font-size:6.75px; font-family:Arial;" text-anchor="middle"><textPath startOffset="19.985693538727396" xlink:href="#id74">February</textPath></text><path d="M 111.2981086023043 82.29822771554956 l 24.517255433135066 -38.41340953551699 a66.57066870385971,66.57066870385971 0 0,0 0.9606241777552356,0.6248166867119233 l -25.17484663667458 37.98569392464554" fill="red" stroke="none" /><path d="M 111.90073688211348 82.69761687909136 l 17.860026924836767 -25.966545724384588 a52.51574302808756,52.51574302808756 0 0,0 0.7403941043925577,0.5186933855971207 l -18.304352168812976 25.65526749602353" fill="red" stroke="none" /><path d="M 113.34407831869373 83.78471172551755 l 16.63717756820928 -20.216954959289783 a47.18245491282431,47.18245491282431 0 0,0 0.6226791317550249,0.5214758655516583 l -16.982714236923425 19.927577936344306" fill="red" stroke="none" /><path d="M 117.2510076193507 88.02491185347247 l 36.04702130442326 -25.022669229826217 a64.88076708886065,64.88076708886065 0 0,0 0.6289588965684412,0.9229195712627053 l -36.47240466666043 24.398471635293106" fill="red" stroke="none" /><line stroke="#e1ed5e" stroke-width="0.3" x1="172.23445277983987" x2="176.4835382374775" y1="55.19839476539836" y2="52.563006222186495" /><path d="M 173.08426987136738 54.67131705675599 a86.0,86.0 0 0,1 12.851231095245387,41.99856678651699" fill="none" id="id75" stroke="none" /><text fill="#e1ed5e" style="font-size:6.75px; font-family:Arial;" text-anchor="middle"><textPath startOffset="22.20632615414155" xlink:href="#id75">March</textPath></text><path d="M 117.84615892207809 88.93136811851018 l 53.538476766234254 -33.20589564446945 a84.0,84.0 0 0,0 0.7515368068551043,1.2353289071716742 l -54.10212937137558 32.279398964090696" fill="red" stroke="none" /><path d="M 118.56541770881063 90.18545643968196 l 16.836284367779978 -8.900443228005575 a40.04411617712155,40.04411617712155 0 0,0 0.3169025888608564,0.612154933611039 l -16.98699638980095 8.609315572134191" fill="red" stroke="none" /><path d="M 119.04729006885535 91.15688171328212 l 34.608565132748346 -16.067778360917547 a59.156602076223386,59.156602076223386 0 0,0 0.4208504422147158,0.9272881635800321 l -34.880017891926414 15.469668188495454" fill="red" stroke="none" /><path d="M 120.28053869075195 94.5502522615342 l 43.59761246513658 -11.71546740238865 a66.14425754308806,66.14425754308806 0 0,0 0.28600672431560936,1.1021005782735203 l -43.79281552132249 10.96327039856628" fill="red" stroke="none" /><path d="M 120.45610955862082 95.25157060432595 l 19.423679360066693 -4.508773761754649 a40.94011937570505,40.94011937570505 0 0,0 0.15343891388926784,0.6878365646180593 l -19.498412660958 4.173759027586626" fill="red" stroke="none" /><path d="M 120.6074358757038 95.95851677861258 l 28.23852260250516 -5.538074507821154 a49.776456140851906,49.776456140851906 0 0,0 0.15765928316863828,0.8422221949079963 l -28.32966760958366 5.0511742354505955" fill="red" stroke="none" /><path d="M 120.78858239683441 97.02765380044208 l 26.53333887374803 -3.7937300128255287 a47.80318002027673,47.80318002027673 0 0,0 0.1094556263396863,0.815571552011717 l -26.594710499145553 3.336440118749147" fill="red" stroke="none" /><line stroke="#e1ed5e" stroke-width="0.3" x1="184.98032266829074" x2="189.97916517819016" y1="98.17113171792111" y2="98.06355123074" /><path d="M 185.9800911702706 98.14961562048488 a86.0,86.0 0 0,1 -9.607161424134198,41.387399972396054" fill="none" id="id76" stroke="none" /><text fill="#e1ed5e" style="font-size:6.75px; font-family:Arial;" text-anchor="middle"><textPath startOffset="21.466115282336823" xlink:href="#id76">April</textPath></text><path d="M 120.99980553446 99.90962569577887 l 38.812951826374444 -0.1670345713592833 a59.81331124787594,59.81331124787594 0 0,0 -0.004431034782481929,1.029616433017147 l -38.810076494302464 -0.5010913398615484" fill="red" stroke="none" /><path d="M 119.54520255179757 107.68017299344265 l 16.72719466721074 6.572853281960726 a38.97224086475989,38.97224086475989 0 0,0 -0.2507165646362038,0.6222579523112441 l -16.611575488317143 -6.859810602114784" fill="red" stroke="none" /><path d="M 119.26925614724726 108.34839909993367 l 46.658284236995236 20.214686812610875 a71.84908112121774,71.84908112121774 0 0,0 -0.5014344472466882,1.130602303713249 l -46.303408705017276 -21.014837452816813" fill="red" stroke="none" /><path d="M 118.81262510543309 109.33194174019688 l 17.055229188771282 8.460191188807238 a40.03826876668904,40.03826876668904 0 0,0 -0.31157653053843815,0.6147700540254496 l -16.907073988446577 -8.752515454535382" fill="red" stroke="none" /><line stroke="#e1ed5e" stroke-width="0.3" x1="174.80103733775053" x2="179.2010983576182" y1="140.37084112569926" y2="142.7455964860345" /><path d="M 175.68104954172406 140.8457921977663 a86.0,86.0 0 0,1 -30.038265399797805,32.042727171017184" fill="none" id="id77" stroke="none" /><text fill="#e1ed5e" style="font-size:6.75px; font-family:Arial;" text-anchor="middle"><textPath startOffset="22.206326154141568" xlink:href="#id77">May</textPath></text><path d="M 118.12598468904814 110.60418214915192 l 37.792643134883406 22.109699339111884 a64.78495951792777,64.78495951792777 0 0,0 -0.5714006414207801,0.9577003419247146 l -37.40646161776439 -22.7569617749227" fill="red" stroke="none" /><path d="M 117.14729908036423 112.12312394758627 l 37.20687951129968 26.305228007302755 a66.5666204966372,66.5666204966372 0 0,0 -0.6695340667692459,0.9299242596381565 l -36.74856565215483 -26.941785872392042" fill="red" stroke="none" /><path d="M 115.80600337817218 113.82643327865902 l 18.385304067948873 16.082698068659386 a45.42688238066,45.42688238066 0 0,0 -0.5199023413455931,0.5841157919486533 l -18.105742876954942 -16.396788030348908" fill="red" stroke="none" /><path d="M 115.07121518719521 114.62390073753431 l 13.435743755756413 13.036970183138521 a39.72115920092531,39.72115920092531 0 0,0 -0.4803600363207882,0.4866021806926391 l -13.209343094380088 -13.266312857811824" fill="red" stroke="none" /><path d="M 112.92097659922987 116.55440617244103 l 18.548154067778267 23.763968135761264 a51.14564978366723,51.14564978366723 0 0,0 -0.698677027879385,0.5357157518610572 l -18.13634831140539 -24.079723229449694" fill="red" stroke="none" /><line stroke="#e1ed5e" stroke-width="0.3" x1="143.8653032363475" x2="146.44561519142675" y1="172.8068346515853" y2="177.08958963109032" /><path d="M 144.38136562736335 173.6633856474863 a86.0,86.0 0 0,1 -40.68145358897372,12.25698825130547" fill="none" id="id78" stroke="none" /><text fill="#e1ed5e" style="font-size:6.75px; font-family:Arial;" text-anchor="middle"><textPath startOffset="21.466115282336833" xlink:href="#id78">June</textPath></text><path d="M 109.89434966115114 118.52300852407294 l 12.267871774679556 22.966430461502966 a47.037619054418755,47.037619054418755 0 0,0 -0.7174560622201611,0.37533910268600057 l -11.870724809932899 -23.17419898313368" fill="red" stroke="none" /><path d="M 108.92500713936063 119.00905698771935 l 23.27420772679279 49.5709117219055 a75.76279790378547,75.76279790378547 0 0,0 -1.1852620876951712,0.5440956910265398 l -22.417477643330198 -49.96419448326612" fill="red" stroke="none" /><line stroke="#e1ed5e" stroke-width="0.3" x1="102.19456741930631" x2="102.32365962044197" y1="184.97166512339345" y2="189.96999836594603" /><path d="M 102.22038585953345 185.97133177190398 a86.0,86.0 0 0,1 -42.740103519485714,-10.115201625700543" fill="none" id="id79" stroke="none" /><text fill="#e1ed5e" style="font-size:6.75px; font-family:Arial;" text-anchor="middle"><textPath startOffset="22.20632615414155" xlink:href="#id79">July</textPath></text><path d="M 98.01472825383883 120.90594882070398 l -2.704146438440713 28.476074952985712 a49.60418243349374,49.60418243349374 0 0,0 -0.8493355750054183,-0.088037105072951 l 3.1939146100517246 -28.425308479457" fill="red" stroke="none" /><path d="M 96.93821686468263 120.77559828337769 l -3.424487550370595 23.236713551743158 a44.487698305036346,44.487698305036346 0 0,0 -0.7566385878649116,-0.11817138636601053 l 3.8239620018440235 -23.17432385803004" fill="red" stroke="none" /><path d="M 96.22490169976321 120.6578951692458 l -8.502663534643942 46.527830003003096 a68.29835358626893,68.29835358626893 0 0,0 -1.1546727330742326,-0.2212957774379375 l 9.30230388228987 -46.37457702721669" fill="red" stroke="none" /><path d="M 92.06813273071674 119.44442032107085 l -8.715868429312083 21.36634457550749 a44.07568076994474,44.07568076994474 0 0,0 -0.7000236894693065,-0.2926099589717734 l 9.082363578278853 -21.213149573515743" fill="red" stroke="none" /><path d="M 90.42595943632237 118.69057910512821 l -7.0528760928709735 13.768725717810856 a36.46999900044266,36.46999900044266 0 0,0 -0.556270117366257,-0.291014234456656 l 7.288837112763726 -13.645282064409482" fill="red" stroke="none" /><line stroke="#e1ed5e" stroke-width="0.3" x1="58.666819895761336" x2="56.23545636021788" y1="174.27360380694188" y2="178.64263932499728" /><path d="M 58.180547188652646 175.14741091055294 a86.0,86.0 0 0,1 -31.652253787137756,-30.449443065178592" fill="none" id="id80" stroke="none" /><text fill="#e1ed5e" style="font-size:6.75px; font-family:Arial;" text-anchor="middle"><textPath startOffset="22.20632615414155" xlink:href="#id80">August</textPath></text><path d="M 89.1626897886671 117.98757091392108 l -8.984873120833548 14.912929431933213 a38.41043966243521,38.41043966243521 0 0,0 -0.563391159798813,-0.34608086563454477 l 9.24024348056467 -14.75606009947029" fill="red" stroke="none" /><path d="M 88.24862548938628 117.40417183066458 l -22.533773680142204 33.37325933815553 a61.2684168439691,61.2684168439691 0 0,0 -0.8689702927157686,-0.5976856910240691 l 23.104900857480864 -32.98043285776635" fill="red" stroke="none" /><path d="M 87.65650970185807 116.9893568818739 l -27.954618737067992 38.476231823365104 a68.55923805171994,68.55923805171994 0 0,0 -0.9487783330705373,-0.7018835287191337 l 28.612782040557093 -37.989338345906205" fill="red" stroke="none" /><path d="M 86.79598089348748 116.32954008644616 l -25.84786999087416 31.966314631962852 a62.10909454384486,62.10909454384486 0 0,0 -0.825547789344247,-0.6793696276229528 l 26.394287908763093 -31.516649885482718" fill="red" stroke="none" /><path d="M 85.44109423537348 115.13401014063109 l -18.725587216948018 19.46528340880659 a48.01008838942754,48.01008838942754 0 0,0 -0.5906385058024254,-0.5780640908545279 l 19.057875675126237 -19.140069215029495" fill="red" stroke="none" /><path d="M 83.50135304334701 112.99209946851258 l -16.078706670205072 12.661411383198596 a41.46548671302708,41.46548671302708 0 0,0 -0.43675633245982637,-0.5645664350504273 l 16.294269819882967 -12.382766954034917" fill="red" stroke="none" /><path d="M 83.06392112726016 112.41649034213515 l -15.409120782715716 11.29701867929667 a40.106638488669304,40.106638488669304 0 0,0 -0.4033967861282468,-0.5602828538521679 l 15.60129736121957 -11.030102219993363" fill="red" stroke="none" /><path d="M 82.6465618267979 111.8261652097733 l -21.839670290503538 14.88347994239657 a47.428945752595276,47.428945752595276 0 0,0 -0.4539557528530752,-0.6786022569899763 l 22.092629148767344 -14.505340771200773" fill="red" stroke="none" /><path d="M 82.05923443525364 110.91462005526583 l -33.410003723259905 20.325637463372868 a60.107031171909576,60.107031171909576 0 0,0 -0.5301415084781034,-0.8885476618918979 l 33.75492610743624 -19.74752770759486" fill="red" stroke="none" /><line stroke="#e1ed5e" stroke-width="0.3" x1="26.63291911575756" x2="22.317208475507996" y1="142.92168965132927" y2="145.44649492493687" /><path d="M 25.769776987707644 143.4266507060508 a86.0,86.0 0 0,1 -11.730757126820373,-40.83630448921669" fill="none" id="id81" stroke="none" /><text fill="#e1ed5e" style="font-size:6.75px; font-family:Arial;" text-anchor="middle"><textPath startOffset="21.46611528233685" xlink:href="#id81">September</textPath></text><path d="M 81.35079622478065 109.6543875284942 l -35.53896831148918 18.397942162973436 a61.018777398580625,61.018777398580625 0 0,0 -0.4748461795472252,-0.9369165609154152 l 35.85039316082267 -17.783471390355338" fill="red" stroke="none" /><path d="M 80.87730276802145 108.67885076344099 l -16.491350087485944 7.484611849504321 a39.11032971112793,39.11032971112793 0 0,0 -0.2729508332507098,-0.615432072064827 l 16.617742005467935 -7.199631440946798" fill="red" stroke="none" /><path d="M 80.58989483394504 108.01547362559985 l -30.09133102084558 12.426324746482798 a53.5561322842741,53.5561322842741 0 0,0 -0.3445377839090926,-0.8551145243243545 l 30.300771419012058 -11.906510854315638" fill="red" stroke="none" /><path d="M 79.67330655649465 105.27499134158121 l -46.51678358636172 12.071595970010847 a69.0576173408919,69.0576173408919 0 0,0 -0.2886894030605559,-1.1531706609046999 l 46.717684303717334 -11.269097469708756" fill="red" stroke="none" /><path d="M 79.4281124754447 104.21870165774334 l -43.00514737421438 8.819117171554575 a64.90010852336822,64.90010852336822 0 0,0 -0.2150049952312975,-1.0963058385935667 l 43.15058230242135 -8.077547605893054" fill="red" stroke="none" /><path d="M 79.23777060512086 103.15116336523772 l -33.73198920607387 5.119633667518921 a55.11829047136268,55.11829047136268 0 0,0 -0.1342942684909533,-0.9392538010417464 l 33.81511752558142 -4.538234394496775" fill="red" stroke="none" /><path d="M 79.1416061653843 102.43462659150553 l -30.04825707475435 3.507282789012457 a51.25225257386015,51.25225257386015 0 0,0 -0.09473783275257337,-0.8771546707969277 l 30.104177209007975 -2.989531796330747" fill="red" stroke="none" /><path d="M 79.04373962182676 101.35467743843564 l -32.536351539438215 2.1032503206247064 a53.604260970141794,53.604260970141794 0 0,0 -0.05159703438969664,-0.9212997099552651 l 32.567734924715445 -1.542878894334004" fill="red" stroke="none" /><path d="M 79.0095281055655 100.63252640178507 l -29.18647021970994 0.8795044285676717 a50.19971869600605,50.19971869600605 0 0,0 -0.018592869773704494,-0.8639375991051077 l 29.19728515216865 -0.3769770136724352" fill="red" stroke="none" /><line stroke="#e1ed5e" stroke-width="0.3" x1="15.007084014347285" x2="10.007500721073583" y1="101.09737516637583" y2="101.16192664675087" /><path d="M 14.007167355692545 101.11028546245083 a86.0,86.0 0 0,1 10.666146001902534,-42.60595125391555" fill="none" id="id82" stroke="none" /><text fill="#e1ed5e" style="font-size:6.75px; font-family:Arial;" text-anchor="middle"><textPath startOffset="22.20632615414155" xlink:href="#id82">October</textPath></text><path d="M 79.12142395522702 97.74499172005258 l -31.298187266614654 -3.3803872104213926 a52.48020876468992,52.48020876468992 0 0,0 0.10473462017267209,-0.8973022652847803 l 31.235362293438392 3.918633214031035" fill="red" stroke="none" /><path d="M 79.16333360222342 97.38593545837743 l -40.042692790512326 -5.023557097690692 a61.35657780125944,61.35657780125944 0 0,0 0.14048903546684996,-1.0468064961844736 l 39.950287755987645 5.712081935939826" fill="red" stroke="none" /><line stroke="#e1ed5e" stroke-width="0.3" x1="26.266209847984243" x2="21.928928074336255" y1="57.711370442889674" y2="55.22380399835377" /><path d="M 25.398753493254645 57.213857153982495 a86.0,86.0 0 0,1 29.58750427330803,-30.492523968695096" fill="none" id="id83" stroke="none" /><text fill="#e1ed5e" style="font-size:6.75px; font-family:Arial;" text-anchor="middle"><textPath startOffset="21.46611528233685" xlink:href="#id83">November</textPath></text><line stroke="#e1ed5e" stroke-width="0.3" x1="56.762969772571076" x2="54.21961505331055" y1="26.818313649435495" y2="22.513508569990535" /><path d="M 56.25429882871897 25.957352633546506 a86.0,86.0 0 0,1 42.265352541879196,-11.944610805530505" fill="none" id="id84" stroke="none" /><text fill="#e1ed5e" style="font-size:6.75px; font-family:Arial;" text-anchor="middle"><textPath startOffset="22.20632615414155" xlink:href="#id84">December</textPath></text></svg>