<?xml version="1.0" encoding="utf-8" ?>
<svg baseProfile="full" height="200mm" version="1.1" viewBox="0,0,200,200" width="200mm" xmlns="http://www.w3.org/2000/svg" xmlns:ev="http://www.w3.org/2001/xml-events" xmlns:xlink="http://www.w3.org/1999/xlink"><defs /><rect fill="#1a1a1a" height="200" width="200" x="0" y="0" /><text alignment-baseline="middle" fill="#e1ed5e" style="dominant-baseline: central; font-size:9.0px; font-family:Arial;" text-anchor="middle" x="100.0" y="100.0">2026</text><line stroke="#e1ed5e" stroke-width="0.3" x1="100.0" x2="100.0" y1="15.0" y2="10.0" /><path d="M 100.0 14.0 a86.0,86.0 0 0,1 42.46469731375804,11.215312516191453" fill="none" id="id85" stroke="none" /><text fill="#e1ed5e" style="font-size:6.75px; font-family:Arial;" text-anchor="middle"><textPath startOffset="22.20632615414155" xlink:href="#id85">January</textPath></text><path d="M 100.72285384407766 79.0124445844662 l 0.6844780407910009 -19.873340827490658 a40.8851247377011,40.8851247377011 0 0,0 0.7031446484726894,0.030278887667292247 l -1.026463521653022 19.85861421329917" fill="red" stroke="none" /><path d="M 101.80526077348638 79.07773832637324 l 5.048795407798188 -58.5135511777385 a79.73096292842155,79.73096292842155 0 0,0 1.3663414357541979,0.1297505830171104 l -6.05526197064263 58.41797505020621" fill="red" stroke="none" /><path d="M 102.52436894288641 79.15227682838746 l 2.9726224721245242 -24.54966440908051 a45.7289811144789,45.7289811144789 0 0,0 0.780626962375407,0.1013477838601606 l -3.3947641630077774 24.494858302056212" fill="red" stroke="none" /><path d="M 103.2404852339499 79.25152402106235 l 8.607949724280266 -55.11576976526753 a76.78391233387737,76.78391233387737 0 0,0 1.3041228079946217,0.21519143747452044 l -9.555401738413762 54.95943206485339" fill="red" stroke="none" /><path d="M 104.307194497241 79.44645832069477 l 5.105466566687697 -24.362823628682627 a45.89202611331312,45.89202611331312 0 0,0 0.77176680596442,0.16867833147521916 l -5.524076096805645 24.27133179911154" fill="red" stroke="none" /><path d="M 105.01212808612495 79.60689891045804 l 13.540926036921343 -55.09465615641163 a77.73427372347865,77.73427372347865 0 0,0 1.2966488157076093,0.33054465421408324 l -14.487283741313977 54.85340850602868" fill="red" stroke="none" /><path d="M 106.40334571778207 80.00007090966166 l 7.651766722493976 -23.89919248631431 a46.094241081837254,46.094241081837254 0 0,0 0.7535687980520944,0.24843978481667017 l -8.062018342788488 23.763938977238404" fill="red" stroke="none" /><path d="M 107.08798089147638 80.2323363322302 l 6.798446209222553 -18.96018064734702 a41.142177663791095,41.142177663791095 0 0,0 0.6645787533220319,0.24476996345931798 l -7.1238072883171615 18.840347416081375" fill="red" stroke="none" /><path d="M 108.09893153111575 80.62456947434976 l 7.905002813874997 -18.911486316047938 a41.497155514105856,41.497155514105856 0 0,0 0.6566751801351693,0.2811540416546885 l -8.229361751800482 18.77261274643046" fill="red" stroke="none" /><path d="M 109.08828744355905 81.06846463323043 l 12.483734354158036 -26.004487633431154 a49.845744928887854,49.845744928887854 0 0,0 0.7703036403187223,0.377984650912417 l -12.92950926148719 25.785747822383904" fill="red" stroke="none" /><path d="M 109.73455568895987 81.39251694778311 l 14.125205719338247 -27.000156394374415 a51.47178829564001,51.47178829564001 0 0,0 0.7815254601005197,0.4174638348450245 l -14.587876225967078 26.753013833027637" fill="red" stroke="none" /><line stroke="#e1ed5e" stroke-width="0.3" x1="143.23703022742887" x2="145.7803849466894" y1="26.81831364943548" y2="22.513508569990506" /><path d="M 143.74570117128098 25.957352633546492 a86.0,86.0 0 0,1 28.547481713284135,27.462654790039103" fill="none" id="id86" stroke="none" /><text fill="#e1ed5e" style="font-size:6.75px; font-family:Arial;" text-anchor="middle"><textPath startOffset="19.985693538727396" xlink:href="#id86">February</textPath></text><path d="M 111.60114157652 82.49532879139004 l 13.858887641784934 -20.911327552239424 a46.0868967125204,46.0868967125204 0 0,0 0.6574960906876995,0.4439442954316409 l -14.216788426879175 20.669671344509112" fill="red" stroke="none" /><path d="M 112.77801427241765 83.33499621200491 l 23.0194929067993 -30.021874159086714 a58.83133597575193,58.83133597575193 0 0,0 0.7983340709317671,0.623112405327449 l -23.532859532890498 29.62118336453604" fill="red" stroke="none" /><path d="M 113.34407831869373 83.78471172551755 l 34.34303430008599 -41.73253394475333 a75.04672417813009,75.04672417813009 0 0,0 0.99041114199413,0.8294408487204413 l -35.05630297903924 41.13519193863907" fill="red" stroke="none" /><path d="M 114.42810811169701 84.74124197986012 l 13.56793855138903 -14.349067083849423 a40.74802984378643,40.74802984378643 0 0,0 0.5055021220994106,0.4862926409508265 l -13.812923917100859 14.113391356136296" fill="red" stroke="none" /><line stroke="#e1ed5e" stroke-width="0.3" x1="172.23445277983987" x2="176.4835382374775" y1="55.19839476539836" y2="52.563006222186495" /><path d="M 173.08426987136738 54.67131705675599 a86.0,86.0 0 0,1 12.851231095245387,41.99856678651699" fill="none" id="id87" stroke="none" /><text fill="#e1ed5e" style="font-size:6.75px; font-family:Arial;" text-anchor="middle"><textPath startOffset="22.20632615414155" xlink:href="#id87">March</textPath></text><path d="M 117.84615892207809 88.93136811851018 l 18.680838213234264 -11.586320749623846 a42.98218698997435,42.98218698997435 0 0,0 0.38455589954874203,0.6321087866925424 l -18.877509911069232 11.263044189724223" fill="red" stroke="none" /><path d="M 118.21658344932153 89.55222093294921 l 24.652486667031237 -14.138970398433884 a49.41928188388902,49.41928188388902 0 0,0 0.41686895993077316,0.741563364228292 l -24.892213268254444 13.712523524270798" fill="red" stroke="none" /><path d="M 118.56541770881063 90.18545643968196 l 25.625384200550005 -13.546770314078536 a49.985777570529265,49.985777570529265 0 0,0 0.3955792718275524,0.7641332428174726 l -25.854772905537676 13.10366434900072" fill="red" stroke="none" /><path d="M 118.89224826269711 90.83032412892265 l 30.589672950600693 -14.847221043199747 a55.002471438563774,55.002471438563774 0 0,0 0.406080119762007,0.8553082955608361 l -30.840711264204458 14.31847033199837" fill="red" stroke="none" /><path d="M 119.47837535516314 92.15188598940014 l 32.193135784598944 -12.971071528780405 a55.70802051760317,55.70802051760317 0 0,0 0.35071236360712915,0.8925247113539831 l -32.41164169808777 12.414997812530636" fill="red" stroke="none" /><path d="M 120.18372546131832 94.20196356495316 l 20.445375061609596 -5.873198670017376 a42.27223128934484,42.27223128934484 0 0,0 0.1948814869755765,0.7010923970161196 l -20.543443319151535 5.520394969582305" fill="red" stroke="none" /><path d="M 120.45610955862082 95.25157060432595 l 19.207471302046585 -4.458585885348228 a40.71816274189788,40.71816274189788 0 0,0 0.15260704565485078,0.6841074624361367 l -19.281372734703474 4.127300253362128" fill="red" stroke="none" /><path d="M 120.73433829027371 96.67025291283417 l 25.156761388418364 -4.0399482145473415 a46.47908603404057,46.47908603404057 0 0,0 0.12005792836544976,0.7910317430367085 l -25.222575210223113 3.606317359118551" fill="red" stroke="none" /><path d="M 120.83666639777658 97.38593545837742 l 30.578257318928728 -3.836196091835118 a51.817952902774536,51.817952902774536 0 0,0 0.10341295782056838,0.8859790693775748 l -30.639760629752885 3.3092732841326904" fill="red" stroke="none" /><path d="M 120.91429891909075 98.10471618934814 l 26.7082765305768 -2.4203423846356706 a47.81771974819305,47.81771974819305 0 0,0 0.0672306122923876,0.8203837588634852 l -26.745981626688682 1.9602447085644166" fill="red" stroke="none" /><line stroke="#e1ed5e" stroke-width="0.3" x1="184.98032266829074" x2="189.97916517819016" y1="98.17113171792111" y2="98.06355123074" /><path d="M 185.9800911702706 98.14961562048488 a86.0,86.0 0 0,1 -9.607161424134198,41.387399972396054" fill="none" id="id88" stroke="none" /><text fill="#e1ed5e" style="font-size:6.75px; font-family:Arial;" text-anchor="middle"><textPath startOffset="21.466115282336823" xlink:href="#id88">April</textPath></text><path d="M 120.8583938346157 102.4346265915055 l 22.11310719654875 2.581078832262893 a43.26323152249942,43.26323152249942 0 0,0 -0.09270381541031708,0.7389406209178313 l -22.065401871891584 -2.961337207468119" fill="red" stroke="none" /><path d="M 120.49622156327973 104.57218783832717 l 33.73107482033341 7.524548346195456 a55.56015388202378,55.56015388202378 0 0,0 -0.21625978738704868,0.9316415040189228 l -33.596554467015814 -8.104058507562943" fill="red" stroke="none" /><path d="M 119.54520255179757 107.68017299344265 l 32.94521843045477 12.945630836114157 a56.397411984145485,56.397411984145485 0 0,0 -0.3628163296050886,0.9004803757292031 l -32.71749948659229 -13.510810579686174" fill="red" stroke="none" /><path d="M 118.81262510543309 109.33194174019688 l 31.36080834199709 15.55642738495212 a56.00718116110982,56.00718116110982 0 0,0 -0.435846097469999,0.8599656990382888 l -31.08838357474082 -16.093947295693102" fill="red" stroke="none" /><line stroke="#e1ed5e" stroke-width="0.3" x1="174.80103733775053" x2="179.2010983576182" y1="140.37084112569926" y2="142.7455964860345" /><path d="M 175.68104954172406 140.8457921977663 a86.0,86.0 0 0,1 -30.038265399797805,32.042727171017184" fill="none" id="id89" stroke="none" /><text fill="#e1ed5e" style="font-size:6.75px; font-family:Arial;" text-anchor="middle"><textPath startOffset="22.206326154141568" xlink:href="#id89">May</textPath></text><path d="M 117.55443506779139 111.5257021239791 l 40.97358219168867 26.901993796442607 a70.015831196083,70.015831196083 0 0,0 -0.6701411734523735,1.0017701283628775 l -40.50443791282558 -27.603300839011293" fill="red" stroke="none" /><path d="M 117.14729908036423 112.12312394758627 l 26.699652004755535 18.87662827212996 a53.698601072511075,53.698601072511075 0 0,0 -0.5401061746512127,0.7501602375695521 l -26.370766037728718 -19.333422115150643" fill="red" stroke="none" /><path d="M 116.71984013943494 112.70617746262583 l 26.6718289228258 20.26915261868492 a54.499626952669615,54.499626952669615 0 0,0 -0.574045045051854,0.7420306027803207 l -26.318977060555877 -20.725261215578495" fill="red" stroke="none" /><path d="M 116.27256486870786 113.27417163493432 l 36.80012658988852 30.019311674759965 a68.49114012590348,68.49114012590348 0 0,0 -0.7530894393772835,0.9071447434982566 l -36.27794115061769 -30.64831767537199" fill="red" stroke="none" /><path d="M 115.80600337817218 113.82643327865902 l 25.20152811882267 22.04524690513167 a54.48297971555141,54.48297971555141 0 0,0 -0.6235477152105655,0.7005624682230143 l -24.818321553963763 -22.47578354309555" fill="red" stroke="none" /><path d="M 115.32070863581623 114.36230785411682 l 23.830506766640447 22.3397678683072 a53.66432734903241,53.66432734903241 0 0,0 -0.6375665761065833,0.668486006090172 l -23.4424336391549 -22.746660990979876" fill="red" stroke="none" /><path d="M 114.81725581225074 114.88116024355365 l 22.892642956372 22.991375228236947 a53.44497551876894,53.44497551876894 0 0,0 -0.6575005700261175,0.6435026932964946 l -22.493492433970086 -23.382028024456012" fill="red" stroke="none" /><path d="M 114.29624159901734 115.38237550388516 l 24.464939254909666 26.323623568632755 a56.93697831662392,56.93697831662392 0 0,0 -0.7236431030810629,0.6610308172521806 l -24.00819660236174 -26.74084715247152" fill="red" stroke="none" /><path d="M 112.92097659922987 116.55440617244103 l 16.058583763626693 20.57432084453181 a47.09944042900443,47.09944042900443 0 0,0 -0.6434036363387357,0.4933344722060155 l -15.702051398794461 -20.8476946585652" fill="red" stroke="none" /><path d="M 112.04921762599082 117.19931262002967 l 14.825959687433892 21.162894012810586 a46.83944975518769,46.83944975518769 0 0,0 -0.6643241732207156,0.4569282239724326 l -14.459478629590294 -21.41496302614811" fill="red" stroke="none" /><line stroke="#e1ed5e" stroke-width="0.3" x1="143.8653032363475" x2="146.44561519142675" y1="172.8068346515853" y2="177.08958963109032" /><path d="M 144.38136562736335 173.6633856474863 a86.0,86.0 0 0,1 -40.68145358897372,12.25698825130547" fill="none" id="id90" stroke="none" /><text fill="#e1ed5e" style="font-size:6.75px; font-family:Arial;" text-anchor="middle"><textPath startOffset="21.466115282336833" xlink:href="#id90">June</textPath></text><path d="M 110.8373102113329 117.98757091392108 l 17.157263650499587 28.47731499643434 a54.246491023548614,54.246491023548614 0 0,0 -0.8039643281189902,0.4749962960697343 l -16.664531451352214 -28.768429864797824" fill="red" stroke="none" /><path d="M 109.89434966115114 118.52300852407294 l 20.07037339402682 37.573333285214936 a63.59783166239217,63.59783166239217 0 0,0 -0.970045907669176,0.5074821716915783 l -19.420636583831147 -37.913244875851234" fill="red" stroke="none" /><path d="M 109.2508944713604 118.85261126421891 l 27.752683414081186 56.55783379265672 a84.0,84.0 0 0,0 -1.303549327999069,0.6257828940017598 l -26.775021418081884 -57.02717096315804" fill="red" stroke="none" /><line stroke="#e1ed5e" stroke-width="0.3" x1="102.19456741930631" x2="102.32365962044197" y1="184.97166512339345" y2="189.96999836594603" /><path d="M 102.22038585953345 185.97133177190398 a86.0,86.0 0 0,1 -42.740103519485714,-10.115201625700543" fill="none" id="id91" stroke="none" /><text fill="#e1ed5e" style="font-size:6.75px; font-family:Arial;" text-anchor="middle"><textPath startOffset="22.20632615414155" xlink:href="#id91">July</textPath></text><line stroke="#e1ed5e" stroke-width="0.3" x1="58.666819895761336" x2="56.23545636021788" y1="174.27360380694188" y2="178.64263932499728" /><path d="M 58.180547188652646 175.14741091055294 a86.0,86.0 0 0,1 -31.652253787137756,-30.449443065178592" fill="none" id="id92" stroke="none" /><text fill="#e1ed5e" style="font-size:6.75px; font-family:Arial;" text-anchor="middle"><textPath startOffset="22.20632615414155" xlink:href="#id92">August</textPath></text><line stroke="#e1ed5e" stroke-width="0.3" x1="26.63291911575756" x2="22.317208475507996" y1="142.92168965132927" y2="145.44649492493687" /><path d="M 25.769776987707644 143.4266507060508 a86.0,86.0 0 0,1 -11.730757126820373,-40.83630448921669" fill="none" id="id93" stroke="none" /><text fill="#e1ed5e" style="font-size:6.75px; font-family:Arial;" text-anchor="middle"><textPath startOffset="21.46611528233685" xlink:href="#id93">September</textPath></text><line stroke="#e1ed5e" stroke-width="0.3" x1="15.007084014347285" x2="10.007500721073583" y1="101.09737516637583" y2="101.16192664675087" /><path d="M 14.007167355692545 101.11028546245083 a86.0,86.0 0 0,1 10.666146001902534,-42.60595125391555" fill="none" id="id94" stroke="none" /><text fill="#e1ed5e" style="font-size:6.75px; font-family:Arial;" text-anchor="middle"><textPath startOffset="22.20632615414155" xlink:href="#id94">October</textPath></text><line stroke="#e1ed5e" stroke-width="0.3" x1="26.266209847984243" x2="21.928928074336255" y1="57.711370442889674" y2="55.22380399835377" /><path d="M 25.398753493254645 57.213857153982495 a86.0,86.0 0 0,1 29.58750427330803,-30.492523968695096" fill="none" id="id95" stroke="none" /><text fill="#e1ed5e" style="font-size:6.75px; font-family:Arial;" text-anchor="middle"><textPath startOffset="21.46611528233685" xlink:href="#id95">November</textPath></text><line stroke="#e1ed5e" stroke-width="0.3" x1="56.762969772571076" x2="54.21961505331055" y1="26.818313649435495" y2="22.513508569990535" /><path d="M 56.25429882871897 25.957352633546506 a86.0,86.0 0 0,1 42.265352541879196,-11.944610805530505" fill="none" id="id96" stroke="none" /><text fill="#e1ed5e" style="font-size:6.75px; font-family:Arial;" text-anchor="middle"><textPath startOffset="22.20632615414155" xlink:href="#id96">December</textPath></text></svg>