<?xml version="1.0" encoding="utf-8" ?>
<svg baseProfile="full" height="200mm" version="1.1" viewBox="0,0,200,200" width="200mm" xmlns="http://www.w3.org/2000/svg" xmlns:ev="http://www.w3.org/2001/xml-events" xmlns:xlink="http://www.w3.org/1999/xlink"><defs /><rect fill="#1a1a1a" height="200" width="200" x="0" y="0" /><text alignment-baseline="middle" fill="#e1ed5e" style="dominant-baseline: central; font-size:9.0px; font-family:Arial;" text-anchor="middle" x="100.0" y="100.0">2023</text><line stroke="#e1ed5e" stroke-width="0.3" x1="100.0" x2="100.0" y1="15.0" y2="10.0" /><path d="M 100.0 14.0 a86.0,86.0 0 0,1 42.46469731375804,11.215312516191453" fill="none" id="id49" stroke="none" /><text fill="#e1ed5e" style="font-size:6.75px; font-family:Arial;" text-anchor="middle"><textPath startOffset="22.20632615414155" xlink:href="#id49">January</textPath></text><line stroke="#e1ed5e" stroke-width="0.3" x1="143.23703022742887" x2="145.7803849466894" y1="26.81831364943548" y2="22.513508569990506" /><path d="M 143.74570117128098 25.957352633546492 a86.0,86.0 0 0,1 28.547481713284135,27.462654790039103" fill="none" id="id50" stroke="none" /><text fill="#e1ed5e" style="font-size:6.75px; font-family:Arial;" text-anchor="middle"><textPath startOffset="19.985693538727396" xlink:href="#id50">February</textPath></text><line stroke="#e1ed5e" stroke-width="0.3" x1="172.23445277983987" x2="176.4835382374775" y1="55.19839476539836" y2="52.563006222186495" /><path d="M 173.08426987136738 54.67131705675599 a86.0,86.0 0 0,1 12.851231095245387,41.99856678651699" fill="none" id="id51" stroke="none" /><text fill="#e1ed5e" style="font-size:6.75px; font-family:Arial;" text-anchor="middle"><textPath startOffset="22.20632615414155" xlink:href="#id51">March</textPath></text><path d="M 120.78858239683441 97.02765380044208 l 36.18654954048118 -5.1739436075324665 a57.554562780857125,57.554562780857125 0 0,0 0.13178350718955048,0.9819401988032788 l -36.27024904672857 4.550285066664523" fill="red" stroke="none" /><path d="M 120.91429891909075 98.10471618934814 l 31.690697612892684 -2.8718565401756435 a52.820557430364914,52.820557430364914 0 0,0 0.07426448681302601,0.9062148441661075 l -31.735436583525207 2.325927778801767" fill="red" stroke="none" /><path d="M 120.94382443527127 98.46500227214037 l 30.6000074484942 -2.242710831113691 a51.68208284520292,51.68208284520292 0 0,0 0.05739026798147466,0.8878020441395551 l -30.63407830748009 1.715649722721101" fill="red" stroke="none" /><line stroke="#e1ed5e" stroke-width="0.3" x1="184.98032266829074" x2="189.97916517819016" y1="98.17113171792111" y2="98.06355123074" /><path d="M 185.9800911702706 98.14961562048488 a86.0,86.0 0 0,1 -9.607161424134198,41.387399972396054" fill="none" id="id52" stroke="none" /><text fill="#e1ed5e" style="font-size:6.75px; font-family:Arial;" text-anchor="middle"><textPath startOffset="21.466115282336823" xlink:href="#id52">April</textPath></text><path d="M 120.89721153311464 102.0752229133903 l 34.13449940735903 3.3897678259612825 a55.3023989788603,55.3023989788603 0 0,0 -0.1022243738014255,0.9464707429331976 l -34.071092732056556 -3.9768348907792714" fill="red" stroke="none" /><path d="M 120.81339534386255 102.79330883721812 l 35.918582998255005 4.8205347398527065 a57.24061478204612,57.24061478204612 0 0,0 -0.13946525598650222,0.97541967554192 l -35.8302836912519 -5.438099887375036" fill="red" stroke="none" /><path d="M 120.64145759157962 103.86396538481128 l 19.022544510377504 3.5609139128389242 a40.35296637582836,40.35296637582836 0 0,0 -0.13368374168557862,0.6816505187578042 l -18.95843083571626 -3.8878281586646737" fill="red" stroke="none" /><path d="M 119.54520255179757 107.68017299344265 l 34.02220636877396 13.368826945554414 a57.554562780857125,57.554562780857125 0 0,0 -0.3702605223453609,0.9189562516167558 l -33.78704323217121 -13.952482565013984" fill="red" stroke="none" /><path d="M 118.97047184881838 109.00673069616215 l 33.154623760189864 15.741030055570763 a57.70162263293175,57.70162263293175 0 0,0 -0.43371491526928435,0.8935811875692108 l -32.878755588305864 -16.309400199105248" fill="red" stroke="none" /><line stroke="#e1ed5e" stroke-width="0.3" x1="174.80103733775053" x2="179.2010983576182" y1="140.37084112569926" y2="142.7455964860345" /><path d="M 175.68104954172406 140.8457921977663 a86.0,86.0 0 0,1 -30.038265399797805,32.042727171017184" fill="none" id="id53" stroke="none" /><text fill="#e1ed5e" style="font-size:6.75px; font-family:Arial;" text-anchor="middle"><textPath startOffset="22.206326154141568" xlink:href="#id53">May</textPath></text><path d="M 118.12598468904814 110.60418214915192 l 38.05391873987669 22.262552502899048 a65.0876623944327,65.0876623944327 0 0,0 -0.5740704681688692,0.9621751251226595 l -37.6650673960096 -22.91428972190781" fill="red" stroke="none" /><path d="M 117.55443506779139 111.5257021239791 l 30.610298675850448 20.097780595127546 a57.618453952544975,57.618453952544975 0 0,0 -0.5514823959760431,0.8243913558701089 l -30.259813174463684 -20.62170886520346" fill="red" stroke="none" /><path d="M 116.93607887273984 112.41649034213515 l 48.52328296148925 35.57428368084554 a81.1667570072214,81.1667570072214 0 0,0 -0.8357807962718484,1.1196649579518618 l -47.90374089852231 -36.40426151830672" fill="red" stroke="none" /><path d="M 116.498646956653 112.99209946851258 l 35.50594446907622 27.959672297836907 a66.19308982182511,66.19308982182511 0 0,0 -0.7126224740218484,0.8891061070567466 l -35.019404082999515 -28.5667062384719" fill="red" stroke="none" /><path d="M 115.32070863581623 114.36230785411682 l 17.744011783507197 16.634019082253083 a45.32160654648459,45.32160654648459 0 0,0 -0.5384497102061019,0.5645623684575249 l -17.45505552192213 -16.936988567293113" fill="red" stroke="none" /><path d="M 114.81725581225074 114.88116024355365 l 25.935314574488082 26.047169397644645 a57.757252015177215,57.757252015177215 0 0,0 -0.7105518480363947,0.6954245346434585 l -25.48311277407589 -26.489744035210673" fill="red" stroke="none" /><line stroke="#e1ed5e" stroke-width="0.3" x1="143.8653032363475" x2="146.44561519142675" y1="172.8068346515853" y2="177.08958963109032" /><path d="M 144.38136562736335 173.6633856474863 a86.0,86.0 0 0,1 -40.68145358897372,12.25698825130547" fill="none" id="id54" stroke="none" /><text fill="#e1ed5e" style="font-size:6.75px; font-family:Arial;" text-anchor="middle"><textPath startOffset="21.466115282336833" xlink:href="#id54">June</textPath></text><path d="M 109.57404056367764 118.69057910512821 l 20.653802444520533 40.32064893014374 a66.30269622842755,66.30269622842755 0 0,0 -1.0202598664911113,0.5115794773060376 l -19.95668867034666 -40.670196248359076" fill="red" stroke="none" /><path d="M 108.59647513512805 119.15986991738527 l 12.935747790588595 28.83126410021189 a52.60024304523439,52.60024304523439 0 0,0 -0.8292787133454467,0.36353141767573116 l -12.437548402585394 -29.049660071182075" fill="red" stroke="none" /><path d="M 106.57524785965236 119.94407469862006 l 4.114258052518571 12.479388105252015 a34.14010071514748,34.14010071514748 0 0,0 -0.5597003786986096,0.1791983865038868 l -3.8988363287290215 -12.548359338415608" fill="red" stroke="none" /><path d="M 106.2309692047433 120.05430185196036 l 11.43731653041458 36.81087011355228 a59.54675560839992,59.54675560839992 0 0,0 -0.9814582050932312,0.2957053061701691 l -10.801983350881104 -37.00229078882817" fill="red" stroke="none" /><path d="M 104.83641907484287 120.43548508189849 l 10.714311792675488 45.27154396957274 a67.52213635012501,67.52213635012501 0 0,0 -1.1333425015888983,0.257945063515238 l -9.933449141693728 -45.44926576666566" fill="red" stroke="none" /><path d="M 103.7750983002368 120.6578951692458 l 9.842675556379696 53.860573595086294 a75.7525309926387,75.7525309926387 0 0,0 -1.2847305631725565,0.2233668761759868 l -8.914096021735089 -54.02201904978328" fill="red" stroke="none" /><path d="M 103.06178313531738 120.77559828337769 l 3.87579954650971 26.299071765197517 a47.58313370984945,47.58313370984945 0 0,0 -0.8113409392014862,0.11244446121785089 l -3.422530016121393 -26.36189079190797" fill="red" stroke="none" /><path d="M 101.26447882468166 120.96189622390904 l 2.677513072822193 44.386469804892506 a65.46715392282002,65.46715392282002 0 0,0 -1.1254487472928238,0.05817284490135685 l -1.9130762571158892 -44.42598245655606" fill="red" stroke="none" /><line stroke="#e1ed5e" stroke-width="0.3" x1="102.19456741930631" x2="102.32365962044197" y1="184.97166512339345" y2="189.96999836594603" /><path d="M 102.22038585953345 185.97133177190398 a86.0,86.0 0 0,1 -42.740103519485714,-10.115201625700543" fill="none" id="id55" stroke="none" /><text fill="#e1ed5e" style="font-size:6.75px; font-family:Arial;" text-anchor="middle"><textPath startOffset="22.20632615414155" xlink:href="#id55">July</textPath></text><path d="M 100.54218724476979 120.99299961872073 l 1.626561734309384 62.97899885616221 a84.0,84.0 0 0,0 -1.4457612404293283,0.02489009088336136 l -0.5422408039873879 -62.99766642432473" fill="red" stroke="none" /><path d="M 99.45781275523022 120.99299961872073 l -0.868797443283289 33.639051031781484 a54.65026839887395,54.65026839887395 0 0,0 -0.9401918927634071,-0.03238210979786978 l 1.4477096877213391 -33.61911212355752" fill="red" stroke="none" /><path d="M 98.01472825383883 120.90594882070398 l -2.64466272471033 27.849680366291263 a48.97496983791156,48.97496983791156 0 0,0 -0.8385620350446307,-0.08692038360566824 l 3.1236573563605536 -27.800030614229836" fill="red" stroke="none" /><path d="M 92.06813273071674 119.44442032107085 l -16.77999550820369 41.1349906106884 a65.42584497560804,65.42584497560804 0 0,0 -1.0391136469457067,-0.434349588697919 l 17.48558061464686 -40.840055978970504" fill="red" stroke="none" /><path d="M 91.07499286063937 119.00905698771935 l -4.961883242110488 10.56813959282108 a32.67501005402948,32.67501005402948 0 0,0 -0.5070653261701397,-0.24342217087079596 l 5.14306123628087 -10.481163145450722" fill="red" stroke="none" /><line stroke="#e1ed5e" stroke-width="0.3" x1="58.666819895761336" x2="56.23545636021788" y1="174.27360380694188" y2="178.64263932499728" /><path d="M 58.180547188652646 175.14741091055294 a86.0,86.0 0 0,1 -31.652253787137756,-30.449443065178592" fill="none" id="id56" stroke="none" /><text fill="#e1ed5e" style="font-size:6.75px; font-family:Arial;" text-anchor="middle"><textPath startOffset="22.20632615414155" xlink:href="#id56">August</textPath></text><path d="M 89.4739219176387 118.17145234162733 l -14.037132768206353 24.23268069215545 a49.00471227990418,49.00471227990418 0 0,0 -0.726278139643627,-0.4290979265887051 l 14.45217877887836 -23.987464193272995" fill="red" stroke="none" /><path d="M 86.79598089348748 116.32954008644616 l -7.384101398534558 9.131990708062586 a32.743858299382765,32.743858299382765 0 0,0 -0.4352280456217922,-0.35816305137223975 l 7.540199572701039 -9.003532537833166" fill="red" stroke="none" /><line stroke="#e1ed5e" stroke-width="0.3" x1="26.63291911575756" x2="22.317208475507996" y1="142.92168965132927" y2="145.44649492493687" /><path d="M 25.769776987707644 143.4266507060508 a86.0,86.0 0 0,1 -11.730757126820373,-40.83630448921669" fill="none" id="id57" stroke="none" /><text fill="#e1ed5e" style="font-size:6.75px; font-family:Arial;" text-anchor="middle"><textPath startOffset="21.46611528233685" xlink:href="#id57">September</textPath></text><path d="M 81.69416730710424 110.29060199501025 l -31.945023995606448 17.957857103512968 a57.64654403664912,57.64654403664912 0 0,0 -0.47880558064683837,-0.8691712073562526 l 32.249405985704804 -17.405315377758892" fill="red" stroke="none" /><path d="M 81.18737489456691 109.33194174019688 l -21.205526809013595 10.518932878471471 a44.6711283243867,44.6711283243867 0 0,0 -0.33577105377859173,-0.6917878228848827 l 21.383451119406903 -10.152356099621304" fill="red" stroke="none" /><path d="M 80.20201598880116 107.00284435728193 l -42.1882850524874 14.922630190836445 a65.74970712174992,65.74970712174992 0 0,0 -0.3682270676340525,-1.070240221814199 l 42.438902951064684 -14.194217265932949" fill="red" stroke="none" /><path d="M 79.97269907076064 106.31721596034903 l -29.65014745902608 9.352552568948475 a52.09021524365721,52.09021524365721 0 0,0 -0.26236905653199954,-0.8574372573185932 l 29.806743288064208 -8.840788339077834" fill="red" stroke="none" /><path d="M 79.35854240842038 103.8639653848113 l -23.829476596430435 4.460744707502596 a45.24339493976325,45.24339493976325 0 0,0 -0.13670735093243452,-0.7667274243920735 l 23.90273038970206 -4.049898532377309" fill="red" stroke="none" /><path d="M 79.07016306316243 101.71520430193888 l -37.81467575049377 3.0989202027424345 a58.9414418352538,58.9414418352538 0 0,0 -0.07416360621777711,-1.0119034835820317 l 37.862415915375884 -2.4475435826636422" fill="red" stroke="none" /><line stroke="#e1ed5e" stroke-width="0.3" x1="15.007084014347285" x2="10.007500721073583" y1="101.09737516637583" y2="101.16192664675087" /><path d="M 14.007167355692545 101.11028546245083 a86.0,86.0 0 0,1 10.666146001902534,-42.60595125391555" fill="none" id="id58" stroke="none" /><text fill="#e1ed5e" style="font-size:6.75px; font-family:Arial;" text-anchor="middle"><textPath startOffset="22.20632615414155" xlink:href="#id58">October</textPath></text><path d="M 79.62865764111835 94.90015583598534 l -35.091062897246154 -8.784838484026952 a57.17396968054414,57.17396968054414 0 0,0 0.24721934135853524,-0.9526369693706324 l 34.93464722401731 9.387571878946448" fill="red" stroke="none" /><path d="M 79.81627453868168 94.20196356495316 l -53.5120531619668 -15.372030031911763 a76.67619905229844,76.67619905229844 0 0,0 0.3753267187840573,-1.2654151108333096 l 53.239520546071034 16.29087452949161" fill="red" stroke="none" /><path d="M 80.65960295795068 91.81776055985345 l -24.436649659133884 -10.338284068899462 a47.533562973195075,47.533562973195075 0 0,0 0.3252864092155285,-0.7508058809074075 l 24.255072540075673 10.757389094393469" fill="red" stroke="none" /><line stroke="#e1ed5e" stroke-width="0.3" x1="26.266209847984243" x2="21.928928074336255" y1="57.711370442889674" y2="55.22380399835377" /><path d="M 25.398753493254645 57.213857153982495 a86.0,86.0 0 0,1 29.58750427330803,-30.492523968695096" fill="none" id="id59" stroke="none" /><text fill="#e1ed5e" style="font-size:6.75px; font-family:Arial;" text-anchor="middle"><textPath startOffset="21.46611528233685" xlink:href="#id59">November</textPath></text><path d="M 83.17141714833178 87.43820079747576 l -30.583553383616543 -22.829281579499575 a59.16451015019846,59.16451015019846 0 0,0 0.6162238978430156,-0.8108784166080308 l 30.18605354554942 23.35234477198863" fill="red" stroke="none" /><path d="M 84.31358615837235 86.03803664274999 l -33.00342918154134 -29.375271719113545 a65.18294836600164,65.18294836600164 0 0,0 0.7531931878288703,-0.8316947301058375 l 32.49289235309643 29.93901923648894" fill="red" stroke="none" /><path d="M 84.80347519578584 85.50635884689758 l -12.302752123542472 -11.733713909692401 a38.00111031455998,38.00111031455998 0 0,0 0.4555351183397514,-0.46946898211649346 l 12.098952741499602 11.94374708735902" fill="red" stroke="none" /><path d="M 86.37877921826538 84.01681056812374 l -22.228829140782025 -26.083388023660355 a55.27045339301639,55.27045339301639 0 0,0 0.729418551748917,-0.610867060135159 l 21.776553052073996 26.462156241189327" fill="red" stroke="none" /><path d="M 86.93701828274178 83.55741782278169 l -35.20536499685797 -44.31355103827703 a77.5960116102184,77.5960116102184 0 0,0 1.052968436113499,-0.8218585662951601 l 34.437364005585046 44.91298799379542" fill="red" stroke="none" /><line stroke="#e1ed5e" stroke-width="0.3" x1="56.762969772571076" x2="54.21961505331055" y1="26.818313649435495" y2="22.513508569990535" /><path d="M 56.25429882871897 25.957352633546506 a86.0,86.0 0 0,1 42.265352541879196,-11.944610805530505" fill="none" id="id60" stroke="none" /><text fill="#e1ed5e" style="font-size:6.75px; font-family:Arial;" text-anchor="middle"><textPath startOffset="22.20632615414155" xlink:href="#id60">December</textPath></text><path d="M 99.63851952072746 79.00311137660856 l -0.6178401774602736 -35.88775089403621 a56.89306883950272,56.89306883950272 0 0,0 0.9793206567328006,-0.008429322075064678 l 8.791266373174522e-15 35.89306883950272" fill="red" stroke="none" /></svg>